# xmcd CD database file
#
# Track frame offsets:
#	150
#	34562
#	55290
#	80311
#	101197
#	129162
#	144071
#	173866
#	194130
#	219653
#	249572
#	270965
#	302966
#	321410
#
# Disc length: 4748 seconds
#
# Revision: 0
# Processed by: cddbd v1.5.2PL0 Copyright (c) Steve Scherf et al.
# Submitted via: CDex 1.70beta2
#
DISCID=c6128a0e
DTITLE=Various Artist - Jazziz On Disc Spring 2012 - Disc 2 - Gentlemen Next
DYEAR=2012
DGENRE=Jazz
TTITLE0=Josh Nelson - Atma-Krandana
TTITLE1=Jeff Lorber Fusion - Singaraja
TTITLE2=Kirk Whalum - My One And Only Love
TTITLE3=E.S.P. - Clique
TTITLE4=Michael Pedicin - Tell Me
TTITLE5=Robert Glasper - Move Love
TTITLE6=Dennis Rollins Velocity Trio - Samba Galactica
TTITLE7=Paolo Fresu and Omar Sosa - Angustia
TTITLE8=Jack DeJohnette - Sonny Light
TTITLE9=Hiroshima - Have You Ever Wondered
TTITLE10=Bob Brookmeyer - How Deep Is The Ocean?
TTITLE11=Tatum Greenblatt - Floating
TTITLE12=Jay Stewart - Living The Life
TTITLE13=Chano Dominguez - So What
EXTD=YEAR: 2012
EXTT0=
EXTT1=
EXTT2=
EXTT3=
EXTT4=
EXTT5=
EXTT6=
EXTT7=
EXTT8=
EXTT9=
EXTT10=
EXTT11=
EXTT12=
EXTT13=
PLAYORDER=
